<svg width="40" height="40" viewBox="0 0 40 40" fill="none" xmlns="http://www.w3.org/2000/svg">
<rect x="0.5" y="0.5" width="39" height="39" rx="6.5" stroke="#C949CA"/>
<path d="M28.685 13.5925C28.4858 13.5984 28.2968 13.6817 28.1579 13.8246L16.4333 25.5492L11.6087 20.7246C11.5381 20.651 11.4535 20.5923 11.3598 20.5518C11.2662 20.5113 11.1654 20.49 11.0634 20.4889C10.9614 20.4879 10.8602 20.5072 10.7658 20.5458C10.6714 20.5843 10.5856 20.6413 10.5135 20.7135C10.4413 20.7856 10.3843 20.8714 10.3458 20.9658C10.3072 21.0603 10.2879 21.1614 10.2889 21.2634C10.29 21.3654 10.3113 21.4662 10.3518 21.5598C10.3923 21.6535 10.451 21.7381 10.5246 21.8087L15.8913 27.1754C16.035 27.3191 16.23 27.3999 16.4333 27.3999C16.6366 27.3999 16.8316 27.3191 16.9754 27.1754L29.242 14.9087C29.3528 14.801 29.4285 14.6624 29.4591 14.511C29.4898 14.3595 29.4739 14.2024 29.4137 14.0601C29.3535 13.9178 29.2517 13.797 29.1217 13.7136C28.9917 13.6302 28.8394 13.588 28.685 13.5925Z" fill="#C949CA"/>
</svg>
  